<!--?xml version="1.0" encoding="utf-8"?-->
<!-- Generator: Adobe Illustrator 24.0.1, SVG Export Plug-In . SVG Version: 6.00 Build 0)  -->
<svg version="1.1" id="鍥惧眰_1" xmlns="http://www.w3.org/2000/svg" xmlns:xlink="http://www.w3.org/1999/xlink" x="0px" y="0px" viewBox="0 0 1024 1024" style="enable-background:new 0 0 1024 1024;" xml:space="preserve">
<style type="text/css">
	.st0{fill:none;stroke:#000000;stroke-width:40;stroke-miterlimit:10;}
	.st1{fill:none;stroke:#000000;stroke-width:40;stroke-linecap:round;stroke-linejoin:round;stroke-miterlimit:10;}
	.st2{stroke:#000000;stroke-width:40;stroke-linecap:round;stroke-linejoin:round;stroke-miterlimit:10;}
	.st3{fill:none;}
	.st4{fill:none;stroke:#070102;stroke-width:40;stroke-linecap:round;stroke-linejoin:round;stroke-miterlimit:10;}
	.st5{fill:none;stroke:#000000;stroke-width:40;stroke-linecap:round;stroke-miterlimit:10;}
	.st6{fill:#CCCCCC;}
</style>
<path d="M984.55,517.57l-82.16-85.29c25.14-22.41,49.66-47.19,73.45-74.3c7.29-8.3,6.46-20.94-1.84-28.22
	c-8.3-7.29-20.94-6.46-28.22,1.84C820.43,474.41,677.23,546.82,520.15,546.82S219.87,474.41,94.52,331.59
	c-7.29-8.3-19.92-9.13-28.22-1.84c-8.3,7.29-9.12,19.92-1.84,28.22c23.79,27.11,48.31,51.89,73.45,74.3l-82.16,85.29
	c-7.66,7.96-7.43,20.62,0.53,28.28c3.88,3.74,8.88,5.6,13.87,5.6c5.24,0,10.48-2.05,14.41-6.12l83.98-87.17
	c30.65,24.49,62.14,45.52,94.33,62.98l-47.81,99.21c-4.8,9.95-0.62,21.9,9.33,26.7c2.8,1.35,5.76,1.99,8.67,1.99
	c7.44,0,14.58-4.17,18.03-11.32l47.59-98.75c41.77,18.95,85.09,32.31,129.58,40.02l-22.12,99.05c-2.41,10.78,4.38,21.47,15.16,23.88
	c1.47,0.33,2.93,0.49,4.38,0.49c9.16,0,17.42-6.33,19.5-15.64l22.88-102.41c17.22,1.66,34.6,2.5,52.11,2.5s34.89-0.85,52.11-2.5
	l22.88,102.41c2.08,9.31,10.34,15.64,19.5,15.64c1.44,0,2.91-0.16,4.38-0.49c10.78-2.41,17.57-13.1,15.16-23.88l-22.12-99.05
	c44.49-7.71,87.81-21.07,129.58-40.02l47.59,98.75c3.45,7.15,10.59,11.32,18.03,11.32c2.91,0,5.87-0.64,8.67-1.99
	c9.95-4.79,14.13-16.75,9.33-26.7l-47.81-99.21c32.18-17.45,63.68-38.49,94.33-62.98l83.98,87.17c3.93,4.07,9.16,6.12,14.41,6.12
	c4.99,0,9.99-1.86,13.87-5.6C991.98,538.18,992.21,525.52,984.55,517.57z"></path>
</svg>