<svg t="1593583233121" class="icon" viewBox="0 0 1024 1024" version="1.1" xmlns="http://www.w3.org/2000/svg" p-id="3188" width="32" height="32"><path d="M992 224v672a96 96 0 0 1-96 96H128a96 96 0 0 1-96-96V96a64 64 0 0 1 64-64h832a64 64 0 0 1 64 64v128z m-263.296 338.528a224.096 224.096 0 0 1-436.096 1.984 64 64 0 1 0-64.416 5.152C254.912 701.088 371.104 800 510.432 800c138.752 0 254.592-98.144 281.92-228.8a64 64 0 1 0-63.68-8.672zM928 224V128a32 32 0 0 0-32-32H128a32 32 0 0 0-32 32v96h832z m0 64H96v608a32 32 0 0 0 32 32h768a32 32 0 0 0 32-32V288z" fill="#e6e6e6" p-id="3189"></path></svg>