<svg t="1593583192946" class="icon" viewBox="0 0 1024 1024" version="1.1" xmlns="http://www.w3.org/2000/svg" p-id="3010" width="32" height="32"><path d="M640 109.248V320a32 32 0 0 0 32 32h210.752L640 109.248zM960 352v576a64 64 0 0 1-64 64H128a64 64 0 0 1-64-64V96a64 64 0 0 1 64-64h512c8.192 0 16.384 3.136 22.624 9.376l288 288A31.904 31.904 0 0 1 960 352zM576 96H128v832h768V416h-224a96 96 0 0 1-96-96V96zM256 480h384a32 32 0 0 1 0 64H256a32 32 0 0 1 0-64z m0 192h384a32 32 0 0 1 0 64H256a32 32 0 0 1 0-64z" fill="#e6e6e6" p-id="3011"></path></svg>