<?xml version="1.0" standalone="no"?><!DOCTYPE svg PUBLIC "-//W3C//DTD SVG 1.1//EN" "http://www.w3.org/Graphics/SVG/1.1/DTD/svg11.dtd"><svg t="1593584240858" class="icon" viewBox="0 0 1160 1024" version="1.1" xmlns="http://www.w3.org/2000/svg" p-id="2198" width="36.25" height="32" xmlns:xlink="http://www.w3.org/1999/xlink"><defs><style type="text/css"></style></defs><path d="M955.733333 566.613333c-68.266667 0-136.533333-27.306667-170.666666-81.92-40.96 47.786667-122.88 81.92-204.8 81.92s-157.013333-27.306667-204.8-81.92C341.333333 532.48 273.066667 566.613333 204.8 566.613333c-116.053333 0-204.8-75.093333-204.8-170.666666 0-54.613333 27.306667-95.573333 68.266667-129.706667v-40.96c0-116.053333 88.746667-204.8 204.8-204.8h614.4c116.053333 0 204.8 88.746667 204.8 204.8v40.96c40.96 34.133333 68.266667 81.92 68.266666 129.706667 0 88.746667-88.746667 170.666667-204.8 170.666666z m-170.666666-191.146666l47.786666 68.266666c27.306667 34.133333 68.266667 54.613333 116.053334 54.613334 75.093333 0 136.533333-47.786667 136.533333-102.4 0-27.306667-13.653333-54.613333-40.96-75.093334l-20.48-20.48V225.28c0-75.093333-61.44-136.533333-136.533333-136.533333H273.066667c-75.093333 0-136.533333 61.44-136.533334 136.533333v75.093333l-27.306666 20.48c-27.306667 20.48-40.96 47.786667-40.96 75.093334 0 54.613333 61.44 102.4 136.533333 102.4 47.786667 0 95.573333-20.48 116.053333-54.613334l47.786667-68.266666 54.613333 61.44c34.133333 34.133333 88.746667 54.613333 150.186667 54.613333s122.88-20.48 150.186667-54.613333l61.44-61.44zM853.333333 1003.52h-546.133333c-129.706667 0-238.933333-109.226667-238.933333-238.933333V634.88c0-20.48 13.653333-34.133333 34.133333-34.133333s34.133333 13.653333 34.133333 34.133333v129.706667c0 95.573333 75.093333 170.666667 170.666667 170.666666h546.133333c47.786667 0 88.746667-20.48 122.88-47.786666 34.133333-34.133333 47.786667-75.093333 47.786667-122.88v-136.533334c0-20.48 13.653333-34.133333 34.133333-34.133333s34.133333 20.48 34.133334 40.96v136.533333c0 68.266667-27.306667 122.88-68.266667 170.666667-47.786667 40.96-109.226667 61.44-170.666667 61.44z" p-id="2199" fill="#e6e6e6"></path><path d="M307.2 225.28h546.133333c20.48 0 34.133333 13.653333 34.133334 34.133333s-13.653333 34.133333-34.133334 34.133334h-546.133333c-20.48 0-34.133333-20.48-34.133333-34.133334 0-20.48 13.653333-34.133333 34.133333-34.133333z" p-id="2200" fill="#e6e6e6"></path></svg>