<svg t="1594353435849" class="icon" viewBox="0 0 1024 1024" version="1.1" xmlns="http://www.w3.org/2000/svg" p-id="4329" width="32" height="32"><path d="M287.328 830.752c17.568 0 34.272-3.328 49.952-10.016 15.744-6.72 29.344-15.84 40.96-27.744 11.616-11.84 20.736-25.44 27.392-40.928a125.344 125.344 0 0 0 9.984-49.792 124.8 124.8 0 0 0-9.984-49.792 128.992 128.992 0 0 0-27.392-40.704 128.32 128.32 0 0 0-40.96-27.392 126.784 126.784 0 0 0-49.952-10.08c-17.632 0-34.24 3.424-49.792 10.08a128.64 128.64 0 0 0-67.968 68.096c-6.656 15.52-9.952 32.16-9.952 49.792s3.296 34.336 9.952 49.792c6.656 15.488 15.84 29.216 27.392 40.928a125.376 125.376 0 0 0 90.368 37.76" fill="#e6e6e6" p-id="4330"></path><path d="M160 351.136h704v64H160zM640 223.136h128v64h-128zM640 479.136h128v64h-128zM640 735.136h128v64h-128z" fill="#e6e6e6" p-id="4331"></path><path d="M864 95.136H160a32 32 0 0 0-32 32v335.36a299.52 299.52 0 0 1 46.976-25.408c5.6-2.4 11.328-4.256 17.024-6.272v-271.68h640v704h-305.632c-10.208 15.264-21.76 29.44-34.784 42.656a276.512 276.512 0 0 1-23.744 21.344H864a32 32 0 0 0 32-32v-768a32 32 0 0 0-32-32" fill="#e6e6e6" p-id="4332"></path><path d="M559.424 607.136c7.264 20.576 12.288 41.824 14.56 64H864v-64h-304.576z" fill="#e6e6e6" p-id="4333"></path><path d="M498.016 749.184a50.24 50.24 0 0 1-23.328-17.6 47.264 47.264 0 0 1-8.864-28.608c0-11.264 3.52-21.28 10.56-30.112 7.008-8.8 15.488-14.976 25.376-18.528a17.6 17.6 0 0 0 7.52-5.984c2.304-3.168 3.168-7.36 2.528-12.8a114.56 114.56 0 0 0-7.424-27.68c-3.648-9.088-7.904-16-12.672-20.48a14.72 14.72 0 0 0-9.344-4.288 14.912 14.912 0 0 0-9.344 1.888c-9.6 4.544-20.032 6.336-31.232 5.536a43.424 43.424 0 0 1-28.352-12.768 48.896 48.896 0 0 1-13.888-26.944 51.904 51.904 0 0 1 3.84-29.376 30.336 30.336 0 0 0 1.952-6.432 11.392 11.392 0 0 0-1.472-8.48 46.176 46.176 0 0 0-10.368-11.424 61.6 61.6 0 0 0-14.208-8.704 96.992 96.992 0 0 0-15.584-5.248 63.104 63.104 0 0 0-14.688-1.888c-2.944 0-5.728 1.344-8.448 4.064a30.208 30.208 0 0 0-5.984 7.936c-3.52 9.568-9.664 17.568-18.304 23.84a49.344 49.344 0 0 1-29.76 9.408c-10.88 0-20.352-3.392-28.352-9.952a58.304 58.304 0 0 1-17.344-22.88 24.192 24.192 0 0 0-4.992-8.448 12.608 12.608 0 0 0-9.92-4.096 67.84 67.84 0 0 0-12.928 1.664c-5.44 1.152-11.104 2.784-16.864 5.056-5.824 2.304-11.168 5.12-16.096 8.448a27.616 27.616 0 0 0-10.432 11.744 10.784 10.784 0 0 0-0.704 6.752c0.48 2.528 1.024 4.8 1.664 6.688 0.32 1.952 0.736 5.152 1.216 9.6a81.088 81.088 0 0 1-3.36 31.552 34.784 34.784 0 0 1-8.384 14.24 48.96 48.96 0 0 1-27.648 13.664 57.664 57.664 0 0 1-29.984-3.616c-2.88-0.96-5.536-1.6-7.904-1.92a11.52 11.52 0 0 0-7.52 1.92 30.016 30.016 0 0 0-8.864 8.896c-2.72 4.064-5.12 8.448-7.2 13.28-2.08 4.8-3.712 9.792-5.024 14.912a62.112 62.112 0 0 0-1.888 14.016 24.64 24.64 0 0 0 2.848 11.328c1.92 3.648 4.32 5.984 7.136 6.848 9.568 3.936 18.272 10.016 25.92 18.336 7.68 8.288 11.488 18.08 11.488 29.344 0 10.848-3.808 20.736-11.488 29.568a67.776 67.776 0 0 1-25.92 19.04c-5.44 1.952-8.64 6.4-9.6 13.44-0.64 3.904-0.32 8.8 0.96 14.72 1.28 6.016 3.104 11.744 5.504 17.344 2.4 5.632 5.12 10.848 8.16 15.424 3.104 4.672 6.368 7.584 9.888 8.896a19.936 19.936 0 0 0 13.504 0.896c7.104-2.208 13.952-3.456 20.672-3.776a65.28 65.28 0 0 1 18.304 1.664 30.848 30.848 0 0 1 16.256 9.376c7.424 8 11.52 16.768 12.288 26.24 0.8 9.44-0.544 17.92-4.064 25.184-2.56 5.6-3.744 9.856-3.616 12.8a15.168 15.168 0 0 0 2.656 7.968c2.24 3.168 5.6 6.4 10.048 9.568 4.576 3.328 9.6 6.08 15.168 8.512 5.6 2.368 11.264 4.416 16.864 5.984 5.664 1.632 10.688 2.432 15.168 2.432 3.84 0 7.328-0.896 10.56-2.656a17.28 17.28 0 0 0 7.168-8.48c3.52-9.632 9.728-18.08 18.528-25.28a45.12 45.12 0 0 1 29.536-10.912c11.264 0 21.056 3.712 29.504 10.912 8.576 7.2 14.56 15.744 18.08 25.76h0.48a18.304 18.304 0 0 0 5.248 7.2c2.56 2.272 5.28 3.36 8.16 3.36a82.56 82.56 0 0 0 30.08-7.232c4.96-2.272 9.6-4.768 13.76-7.456 4.064-2.752 7.168-5.376 9.088-7.904 4.16-6.528 4.608-12.928 1.44-19.328a54.304 54.304 0 0 1-4.32-29.376c1.28-10.176 5.856-19.392 13.504-27.36a28.928 28.928 0 0 1 12.672-8.192c4.96-1.632 9.92-2.624 14.88-3.168 5.024-0.448 9.792-0.288 14.656 0.544 4.832 0.736 8.8 1.664 12 2.624 3.52 1.28 6.72 1.888 9.568 1.888a23.136 23.136 0 0 0 10.144-2.848 30.752 30.752 0 0 0 10.528-9.568c3.2-4.64 5.92-9.6 8.16-15.264 2.208-5.568 3.808-11.168 4.768-16.608 0.96-5.44 1.12-10.112 0.48-13.952a20.928 20.928 0 0 0-7.072-10.88 53.856 53.856 0 0 0-5.728-3.808z m-210.4 49.312a96 96 0 1 1 0-192 96 96 0 0 1 0 192z" fill="#e6e6e6" p-id="4334"></path></svg>